<svg xmlns="http://www.w3.org/2000/svg" width="164.482" height="35" viewBox="0 0 164.482 35"><defs><style>.a{fill:#c31924;}</style></defs><path class="a" d="M189.794,5.964a5.964,5.964,0,1,1,5.964,5.964A5.965,5.965,0,0,1,189.794,5.964Zm13.318-3.5a7.662,7.662,0,0,1,.024,6.845l90.852,0,1.631-6.546.074-.293Zm-14.7,0-51.048,0-.023.078-1.606,6.645-.031.123h52.685A7.828,7.828,0,0,1,188.41,2.466ZM198.4,13.659l-8.744.006L184.214,34.7h8.891l5.3-21.036Zm57.259.006L249.415,24.6l-.074-.074-.51-10.87H237.254l-.02.074L231.861,34.7h8.659l2.817-10.62.049.049L244.453,34.7h4.923l6.093-9.607.468-.593v.074l-2.347,9.214-.23.912h8.779l5.593-21.036Zm-34.512,0L214.9,24.6l-.074-.074-.511-10.87H202.742l-.02.074L197.349,34.7h8.658l2.818-10.62.048.049L209.941,34.7h4.923l6.092-9.607.469-.593v.074l-2.348,9.214-.229.912h8.778l5.594-21.036ZM266.578,34.7h20.987s1.282-5.373,1.29-5.365l-11.915-.007h-.1c0-.006.572-2.191.572-2.191l11.987.006,1.136-4.248.085-.3H278.6l.025-.123c.148-.667.35-1.326.513-1.982l11.939.006c.666-2.223,1.185-4.446,1.8-6.719l.027-.124H271.932C271.886,13.685,266.578,34.7,266.578,34.7Zm-82-16.179a12.34,12.34,0,0,1-1.084,4.323,5.725,5.725,0,0,1-4.77,3.188l-2.175.172c1.8,2.865,3.855,5.63,5.684,8.5H172.078c-1.481-2.322-2.841-4.642-4.349-6.964-.4,1.428-1.923,6.964-1.923,6.964h-8.948l5.353-21.023,9.918.028,7.635.024c1.754.074,3.606.568,4.372,2.347a5.545,5.545,0,0,1,.444,2.074Zm-9.634,1.211a10.4,10.4,0,0,0-2.817-.248c-.79,0-1.605.049-2.348.049-.419,1.458-.864,2.916-1.136,4.373,1.136,0,2.323.074,3.485.049.716-.025,3.2-.1,3.435-2.4C175.638,20.834,175.587,20.1,174.946,19.734ZM144.48,20.4a60.8,60.8,0,0,1,12.205.3l1.63-5.631.106-.378-.054-.018c-1.681-.371-3.41-.667-5.116-.889-5.114-.419-11.044-.988-15.615.914-3.434,1.432-4.6,5.04-5.485,8.151-.593,3.212-2.126,7.732.766,10.326,2.051,1.581,4.719,1.679,7.386,1.828a60.769,60.769,0,0,0,12.676-1.111l.2-.061,2.913-10.48-10.4-.009s-1.093,4.1-1.086,4.1l2.723.023c-.2.741-.425,1.657-.671,2.374,0,0-4.548.592-5.856-.495-1.308-1.63-.271-3.9.149-5.657A4.681,4.681,0,0,1,144.48,20.4Z" transform="translate(-131.212)"/></svg>